<svg width="416" height="416" viewBox="0 0 416 416" fill="none" xmlns="http://www.w3.org/2000/svg">
<circle cx="208" cy="208" r="208" fill="#10A37F"/>
<path d="M259.941 297.369C239.519 296.821 221.714 285.794 211.683 269.468C216.612 260.422 219.418 250.059 219.418 239.053C219.418 233.988 218.808 229.066 217.683 224.338C228.767 234.779 243.567 241.312 259.875 241.727C264.405 250.014 266.989 259.514 266.989 269.606C266.989 279.698 264.433 289.11 259.941 297.369ZM157.059 119.631C177.481 120.179 195.286 131.206 205.317 147.532C200.388 156.578 197.582 166.936 197.582 177.941C197.582 183.012 198.192 187.934 199.317 192.662C188.233 182.221 173.433 175.688 157.131 175.278C152.6 166.986 150.016 157.486 150.016 147.394C150.016 137.351 152.573 127.896 157.064 119.636L157.059 119.631ZM160.702 236.069C170.35 222.401 185.699 213.045 203.282 211.484C201.336 214.235 199.201 216.837 196.822 219.212C187.39 228.629 174.747 234.824 160.702 236.069ZM208.5 214.551C211.977 222.013 213.973 230.295 213.973 239.053C213.973 247.811 211.977 256.093 208.5 263.561C205.023 256.098 203.027 247.817 203.027 239.053C203.027 230.29 205.023 222.013 208.5 214.551ZM203.282 205.516C185.699 203.955 170.356 194.594 160.702 180.931C178.285 182.492 193.628 191.853 203.282 205.516ZM157.125 241.727C173.433 241.312 188.233 234.779 199.317 224.338C198.197 229.066 197.582 233.993 197.582 239.059C197.582 250.064 200.388 260.422 205.317 269.468C195.286 285.794 177.481 296.821 157.064 297.369C152.573 289.104 150.016 279.649 150.016 269.606C150.016 259.564 152.6 250.014 157.131 241.727H157.125ZM213.712 211.478C231.301 213.04 246.644 222.401 256.298 236.064C238.715 234.503 223.366 225.141 213.712 211.478ZM213.973 177.941C213.973 186.699 211.977 194.981 208.5 202.444C205.023 194.981 203.027 186.699 203.027 177.941C203.027 169.183 205.023 160.902 208.5 153.439C211.977 160.902 213.973 169.189 213.973 177.947V177.941ZM154.02 180.737C162.143 193.918 174.93 203.933 190.068 208.494C174.93 213.056 162.143 223.076 154.02 236.257C133.614 235.748 115.814 224.77 105.745 208.5C115.809 192.224 133.614 181.252 154.02 180.743V180.737ZM226.937 208.494C242.075 203.933 254.857 193.918 262.986 180.737C283.392 181.246 301.191 192.224 311.261 208.494C301.197 224.765 283.397 235.743 262.991 236.252C254.868 223.071 242.081 213.056 226.943 208.489L226.937 208.494ZM213.712 205.516C223.361 191.848 238.709 182.492 256.298 180.931C246.644 194.599 231.296 203.955 213.712 205.516ZM259.869 175.273C243.561 175.688 228.756 182.215 217.677 192.662C218.797 187.934 219.413 183.007 219.413 177.941C219.413 166.936 216.607 156.578 211.677 147.532C221.714 131.206 239.519 120.179 259.941 119.636C264.433 127.896 266.984 137.357 266.984 147.394C266.984 157.486 264.405 166.986 259.869 175.278V175.273ZM151.064 241.6C146.906 250.059 144.565 259.564 144.565 269.606C144.565 279.494 146.828 288.855 150.859 297.214C120.777 294.85 97 269.7 97 239.059C97 230.074 99.1016 221.587 102.75 213.975C113.502 229.609 131.03 240.227 151.07 241.6H151.064ZM208.494 274.694C219.135 290.427 236.619 301.167 256.648 302.678C246.09 317.952 228.451 328 208.5 328C188.549 328 170.91 317.958 160.352 302.678C180.375 301.167 197.859 290.422 208.5 274.694H208.494ZM314.244 203.03C303.498 187.402 285.97 176.779 265.93 175.406C270.089 166.947 272.429 157.436 272.429 147.394C272.429 137.351 270.167 128.151 266.135 119.791C296.223 122.161 320 147.311 320 177.947C320 186.932 317.898 195.418 314.25 203.03H314.244ZM150.865 119.786C146.833 128.145 144.571 137.506 144.571 147.388C144.571 157.27 146.917 166.941 151.07 175.4C131.03 176.773 113.497 187.391 102.75 203.025C99.1071 195.413 97 186.932 97 177.941C97 161.848 103.56 147.25 114.151 136.676C123.716 127.126 136.586 120.909 150.865 119.786ZM208.5 89C228.457 89 246.09 99.0423 256.653 114.322C236.63 115.833 219.147 126.578 208.5 142.312C197.859 126.578 180.375 115.839 160.352 114.322C170.91 99.0423 188.549 89 208.5 89ZM320 239.059C320 269.695 296.228 294.85 266.135 297.22C270.167 288.861 272.429 279.499 272.429 269.612C272.429 259.564 270.089 250.059 265.93 241.6C285.97 240.227 303.498 229.603 314.244 213.975C317.893 221.587 319.994 230.074 319.994 239.059H320Z" fill="white"/>
</svg>
