<?xml version="1.0" encoding="utf-8"?>
<!-- Generator: Adobe Illustrator 27.9.0, SVG Export Plug-In . SVG Version: 6.00 Build 0)  -->
<svg version="1.1" xmlns="http://www.w3.org/2000/svg" xmlns:xlink="http://www.w3.org/1999/xlink" x="0px" y="0px"
	 viewBox="0 0 2500 2500" style="enable-background:new 0 0 2500 2500;" xml:space="preserve">
<style type="text/css">
	.st0{fill:#FFFFFF;}
</style>
<g id="Background">
</g>
<g id="Illustration">
	<g id="Menopause_1_">
		<g>
			<g>
				<g>
					<path class="st0" d="M2117.3,1500.4H482.8c-31.3,0-56.7-25.4-56.7-56.7V394c0-31.3,25.4-56.7,56.7-56.7h1634.4
						c31.3,0,56.7,25.4,56.7,56.7v1049.7C2173.9,1475,2148.6,1500.4,2117.3,1500.4z"/>
					<path d="M2117.3,1502.7H482.8c-32.5,0-59-26.5-59-59V394c0-32.5,26.5-59,59-59h1634.4c32.5,0,59,26.5,59,59v1049.7
						C2176.2,1476.2,2149.8,1502.7,2117.3,1502.7z M482.8,339.6c-30,0-54.4,24.4-54.4,54.4v1049.7c0,30,24.4,54.4,54.4,54.4h1634.4
						c30,0,54.4-24.4,54.4-54.4V394c0-30-24.4-54.4-54.4-54.4H482.8z"/>
				</g>
				<path d="M602.4,1462.8c-1.3,0-2.3-1-2.3-2.3c0-1.3,1-2.3,2.3-2.3l1487.8-8.9c0.3,0,0.6,0,0.8,0.2c9,3.5,18,2.6,25.3-2.4
					c8.6-5.9,13.8-17.1,13.7-29l-2.5-298.8c0-1.3,1-2.3,2.3-2.3c0,0,0,0,0,0c1.3,0,2.3,1,2.3,2.3l2.5,298.8
					c0.1,13.5-5.9,26-15.7,32.8c-8.4,5.8-18.8,6.9-29.1,3.1L602.4,1462.8C602.4,1462.8,602.4,1462.8,602.4,1462.8z"/>
				<path d="M2127.5,853.4c-1.3,0-2.3-1-2.3-2.3l-3.7-437.7c-0.1-16.3-13.5-29.7-29.9-29.7l-669.1-2.2c-1.3,0-2.3-1-2.3-2.3
					c0-1.3,1-2.3,2.3-2.3c0,0,0,0,0,0l669.1,2.2c18.8,0.1,34.3,15.4,34.4,34.3l3.7,437.7C2129.8,852.4,2128.8,853.4,2127.5,853.4
					C2127.5,853.4,2127.5,853.4,2127.5,853.4z"/>
				<path d="M461.5,837.4c-1.3,0-2.3-1-2.3-2.3V493.8c0-1.3,1-2.3,2.3-2.3s2.3,1,2.3,2.3v341.3C463.8,836.4,462.8,837.4,461.5,837.4
					z"/>
			</g>
			<g>
				<g>
					<g>
						<g>
							<path class="st0" d="M2022.1,943.3c-4.9-69.5-73.7-118.3-153.5-109c-59.5,7-108.4,44.3-127.4,91.6
								c-98.2-15.4-144.1-85.2-144.6-86c-0.8-1.3-1.8-2.5-2.7-3.5c16-57.8,20.7-121.2,9.1-178.4
								c-30.8-151.7-167.2-214.2-270.8-229.2c-9.5-2.5-75.4-2.5-84.9,0c-103.5,15-240,77.5-270.8,229.2
								c-11.6,57.2-6.8,120.6,9.1,178.4c-1,1-1.9,2.2-2.7,3.5c-0.5,0.7-46.4,70.6-144.6,86c-19-47.3-67.9-84.6-127.4-91.6
								c-79.9-9.3-148.6,39.4-153.5,109c-4.9,69.5,55.8,133.4,135.7,142.8c79.9,9.3,148.6-39.4,153.5-109c0-0.3,0-0.6,0-0.9
								c84.6-14.3,135.6-64.5,156.4-89.5c21.8,52.3,52.9,95.8,88.6,119.3c42.5,28.1,72.8,15.5,98.6,57.5
								c7.8,12.7,17.4,33.9,26.9,207.1c4,73.5,4.6,110.7,26.9,132.3c11.7,11.3,26.3,15.4,37.3,16.8c0.3,0.3,14.6,0.6,15.7,0.5
								c0.6,0,1-0.2,1.3-0.5c11-1.4,25.6-5.5,37.3-16.8c22.3-21.6,22.9-58.9,26.9-132.3c9.5-173.2,19.1-194.4,26.9-207.1
								c25.8-42,56.1-29.4,98.6-57.5c35.6-23.6,66.7-67.1,88.6-119.3c20.8,25,71.8,75.2,156.4,89.5c0,0.3,0,0.6,0,0.9
								c4.9,69.5,73.7,118.3,153.5,109C1966.3,1076.8,2027.1,1012.9,2022.1,943.3z"/>
							<path d="M1292.4,1422.7c-3.9,0-9.1-0.1-11.5-0.6l0,0.1c-10.8-1.4-26.3-5.5-38.7-17.4c-21.5-20.8-23.4-56.1-26.8-120
								l-0.7-13.8c-9.8-178.8-19.9-195.2-26.5-206c-15.1-24.6-31.4-29.8-52.1-36.4c-13.5-4.3-28.7-9.1-45.8-20.5
								c-34.2-22.6-65.3-64-88-116.9c-23.8,27.8-73.6,73-153.6,87.1c-2.4,30.6-17.3,58.6-41.9,79c-30,24.8-71.6,36.2-114.1,31.2
								c-80.9-9.5-142.7-74.6-137.7-145.2c2.2-30.9,17.1-59.3,42-79.9c29.9-24.8,71.5-36.2,114.1-31.2
								c57.9,6.8,108.2,42.5,128.6,91.3c95.8-15.7,140.8-84,141.2-84.7c0.6-1,1.4-2,2.1-2.9c-16.6-60.9-19.8-124.2-8.8-178.3
								c14-69.2,50.7-125.5,109-167.3c45.1-32.3,103.2-55,163.6-63.7c10.4-2.6,75.3-2.6,85.8,0c60.3,8.8,118.4,31.4,163.6,63.7
								c58.3,41.7,95,98,109,167.3c11,54.1,7.8,117.3-8.8,178.3c0.8,0.9,1.5,1.9,2.1,2.9c0.4,0.7,45.5,68.9,141.2,84.6
								c20.4-48.8,70.7-84.6,128.6-91.3c42.6-5,84.2,6.4,114.1,31.2c24.9,20.6,39.8,49,42,79.9c5,70.6-56.8,135.8-137.7,145.2
								c-42.6,5-84.2-6.4-114.1-31.2c-24.6-20.4-39.5-48.4-41.9-79c-80-14.1-129.7-59.3-153.6-87.1c-22.6,52.9-53.8,94.3-88,116.9
								c-17.1,11.3-32.4,16.2-45.8,20.5c-20.6,6.6-36.9,11.8-52.1,36.4c-6.7,10.9-16.7,27.3-26.5,206l-0.7,13.8
								c-3.4,63.9-5.3,99.2-26.8,120c-12.1,11.7-27.3,15.9-38.1,17.3c-0.6,0.3-1.2,0.5-2,0.6C1297,1422.7,1295,1422.7,1292.4,1422.7
								z M1281.8,1417.7c1.7,0.2,13.6,0.5,14.9,0.4c0.3-0.3,0.8-0.4,1.2-0.5c10.1-1.3,24.6-5.1,36-16.2c20.2-19.6,22-52.1,25.4-117
								l0.7-13.8c9.1-166.2,18.1-193.3,27.2-208.2c16-26.1,33.9-31.7,54.6-38.3c13.2-4.2,28.1-8.9,44.7-19.9
								c34.1-22.6,65.3-64.6,87.7-118.3c0.3-0.7,1-1.3,1.8-1.4c0.8-0.1,1.6,0.2,2.1,0.8c22.5,27.1,72.6,74.7,155,88.7
								c1,0.2,1.8,1.1,1.9,2.1l0,0.8c2.1,29.7,16.4,56.9,40.3,76.7c29,24,69.3,35,110.7,30.2c78.5-9.2,138.5-72.1,133.7-140.4
								c-2.1-29.7-16.4-56.9-40.3-76.7c-29-24-69.3-35-110.7-30.2c-57,6.7-106.3,42.1-125.6,90.2c-0.4,1-1.4,1.6-2.5,1.4
								c-99.3-15.5-145.7-86.3-146.2-87c-0.7-1.1-1.6-2.2-2.5-3.2c-0.6-0.6-0.8-1.4-0.5-2.2c16.8-60.6,20-123.6,9.1-177.3
								c-36.5-180.1-215-219.6-268.9-227.4c-0.1,0-0.2,0-0.3,0c-9-2.3-74.7-2.3-83.7,0c-0.1,0-0.2,0-0.3,0
								c-53.8,7.8-232.4,47.3-268.9,227.4c-10.9,53.7-7.7,116.7,9.1,177.3c0.2,0.8,0,1.6-0.5,2.2c-0.9,1-1.8,2-2.5,3.2
								c-0.5,0.7-46.9,71.5-146.2,87c-1,0.2-2.1-0.4-2.5-1.4c-19.3-48.1-68.6-83.5-125.6-90.2c-41.4-4.8-81.7,6.2-110.7,30.2
								c-23.9,19.8-38.2,47-40.3,76.7c-4.8,68.2,55.1,131.2,133.7,140.4c41.4,4.8,81.7-6.2,110.7-30.2c23.9-19.8,38.2-47,40.3-76.7
								l0-0.8c0.1-1.1,0.9-1.9,1.9-2.1c82.4-13.9,132.5-61.5,155-88.7c0.5-0.6,1.3-0.9,2.1-0.8c0.8,0.1,1.5,0.6,1.8,1.4
								c22.4,53.7,53.6,95.7,87.7,118.3c16.6,11,31.5,15.7,44.7,19.9c20.7,6.6,38.6,12.3,54.6,38.3c9.1,14.9,18.1,42,27.2,208.2
								l0.7,13.8c3.5,64.8,5.2,97.4,25.4,117c11.4,11.1,25.9,14.9,36,16.2C1281.6,1417.6,1281.7,1417.7,1281.8,1417.7z"/>
						</g>
					</g>
					<path class="st0" d="M2106.1,926.6c-2.1-12.4-11.6-20.3-21.2-17.7c-0.3,0.1-18.1,4.7-38.7,1.7c-28-4.1-48.9-35.3-48.3-71.5
						l0-0.5c0.5-22.7,2.2-45.7,4.4-69.4c1.1-11.9,2.2-23.9,3.2-36.7c0.5-6.4,0.9-13.1,1-20.4c-0.2-7.6-0.1-15.4-1.1-22.9
						c-1.4-15.3-5.2-30.1-9.9-44.2c-2.7-6.8-5.1-13.9-8.5-20l-4.9-9.5c-1.8-3-3.6-5.8-5.5-8.7c-14.9-23-33.2-40.6-52.5-53.4
						c-19.3-12.8-39.2-21.7-59.3-28.3c-5-1.6-10-2.8-15-4.2l-7.5-2l-7.5-1.5l-15-2.9c-5.3-0.7-11.2-1.3-16.7-1.6
						c-22-0.6-42.5,2.6-62.3,7.1c-19.9,4.5-39.1,10.7-57.8,17.9c-18.8,7.2-37.2,14.9-55.4,23.5c-18.1,8.6-36,17.9-53.7,27.4
						c-17.7,9.6-35.1,19.9-52.4,30.4c-19.2,11.9-38.1,24.1-56.9,37c-18.2,12.5-39.8,14.8-59.2,5.7c-31.2-14.8-71.5-23.7-115.6-23.7
						c-44,0-84.4,8.9-115.6,23.7c-19.4,9.2-41,6.9-59.2-5.7c-18.7-12.9-37.7-25.1-56.9-37c-17.3-10.5-34.7-20.8-52.4-30.4
						c-17.7-9.6-35.6-18.8-53.7-27.4c-18.2-8.6-36.6-16.3-55.4-23.5c-18.8-7.2-38-13.4-57.8-17.9c-19.9-4.5-40.4-7.7-62.3-7.1
						c-5.5,0.3-11.4,0.8-16.7,1.6l-15,2.9l-7.5,1.5l-7.5,2c-5,1.4-10,2.6-15,4.2c-20,6.6-40,15.5-59.3,28.3
						c-19.2,12.8-37.6,30.3-52.4,53.4c-1.8,2.9-3.7,5.8-5.5,8.7l-4.9,9.5c-3.4,6.2-5.8,13.3-8.5,20c-4.7,14-8.5,28.8-9.9,44.2
						c-1,7.6-0.9,15.3-1.1,22.9c0.1,7.3,0.5,14,1,20.4c1,12.8,2.1,24.8,3.2,36.7c2.1,23.7,3.9,46.8,4.4,69.4l0,0.5
						c0.7,36.1-20.1,67.3-48.1,71.4c-20.7,3.1-38.6-1.6-38.9-1.6c-9.7-2.6-19.2,5.3-21.2,17.7c-2.1,12.4,4.1,24.6,13.7,27.3
						c1.3,0.4,14.2,3.8,31.8,3.8c1.8,0,3.7,0,5.7-0.1c11.5-0.5,16.7,18.3,7.3,26.9c-5,4.6-9.8,8.4-13.9,10.6l-0.2,0.1
						c-6,3.2-9.9,11.1-8.8,19.3c1.4,11,9.8,17.1,17.4,14.3c10-3.7,20.1-7.9,29.6-14.6c9.5-6.6,18.6-14.8,26.5-24.8
						c7.9-10,14.7-21.3,20.2-33.5c5.5-12.2,9.6-25,13-38c3.4-13,5.7-26.1,7.2-39.2c1.6-13.1,2.6-26.1,3.1-39
						c0.5-12.9,0.7-25.7,0.5-38.3c-0.2-12.6-0.7-25.1-1.2-37.4c-0.5-12.2-1.1-24.3-1.4-35.7c-0.2-5.7-0.2-11.1-0.1-15.9
						c0.5-4.4,0.4-8.9,1.3-13.2c1-8.8,3.6-17,6.6-25.1c1.9-3.8,3.2-7.9,5.5-11.5l3.1-5.6l3.6-5.2c9.7-13.9,22.6-25.1,36.9-34.1
						c14.4-9,30.4-15.7,47-20.6c4.2-1.2,8.5-2,12.7-3.1l6.3-1.5l6.5-1.1l13-2.1c4.1-0.4,7.6-0.7,11.5-1c15.8-0.3,32.9,2.3,50.2,6.4
						c34.6,8.4,69.8,21.6,104.5,36.8c53.6,23.3,106.9,50.8,159.7,79.5c12.3,6.7,21.7,19.9,25.8,36.2
						c15.8,63.1,65.9,226.9,129.9,268.2c12.9,8.3,20.1,26.4,17.3,44.6c-10.9,69.2-18,172.5-18,246.3c0,120.7,19.1,116.8,42.6,116.8
						c23.5,0,42.6,3.9,42.6-116.8c0-73.9-7.1-177.3-18.1-246.5c-2.9-18.1,4.3-36,17.2-44.3c68.1-43.8,109.2-207.7,128-271.4
						c4-13.6,12.2-24.6,22.7-30.3c54.4-29.8,109.5-58.3,164.8-82.4c34.7-15.2,70-28.4,104.5-36.8c17.2-4.1,34.4-6.7,50.2-6.4
						c3.9,0.2,7.5,0.5,11.5,1l13,2.1l6.5,1.1l6.3,1.5c4.2,1,8.5,1.9,12.7,3.1c16.6,4.9,32.6,11.6,47,20.6
						c14.4,9.1,27.3,20.3,36.9,34.1l3.6,5.2l3.1,5.6c2.3,3.6,3.6,7.7,5.5,11.5c2.9,8,5.6,16.3,6.6,25.1c0.9,4.3,0.9,8.8,1.3,13.2
						c0.1,4.8,0.1,10.2-0.1,15.9c-0.3,11.4-0.9,23.4-1.4,35.7c-0.5,12.3-1,24.7-1.2,37.4c-0.1,12.6,0,25.4,0.5,38.3
						c0.5,12.9,1.6,25.9,3.1,39c1.5,13.1,3.8,26.2,7.2,39.2c3.3,13,7.4,25.8,13,38c5.5,12.2,12.3,23.6,20.2,33.5
						c7.9,10,17,18.2,26.5,24.8c9.5,6.7,19.6,10.9,29.6,14.6c7.6,2.8,16-3.3,17.4-14.3c1-8.2-2.9-16.2-8.9-19.3l-0.2-0.1
						c-4.1-2.1-8.9-6-13.9-10.6c-9.3-8.6-4.1-27.4,7.3-26.9c1.9,0.1,3.8,0.1,5.7,0.1c17.6,0,30.5-3.4,31.8-3.8
						C2102.1,951.2,2108.2,939,2106.1,926.6z"/>
					<path d="M1293.9,1425.5c-0.7,0-1.4,0-2,0l-2.2,0l-2.2,0c-8.6,0.1-17.5,0.1-24.6-7.1c-12.7-12.6-18.1-46.1-18.1-112
						c0-76.6,7.6-180.3,18.1-246.7c2.7-17-4-34.4-16.3-42.3c-73.4-47.4-125.2-247-130.9-269.6c-3.9-15.7-12.9-28.3-24.7-34.7
						c-62.4-34-113.1-59.2-159.5-79.5c-39.4-17.2-73.5-29.2-104.2-36.6c-19.2-4.6-35.4-6.6-49.6-6.3c-3.5,0.2-6.8,0.5-11.4,0.9
						l-19.3,3.1l-6.2,1.5c-1.6,0.4-3.2,0.8-4.8,1.1c-2.6,0.6-5.2,1.2-7.8,1.9c-17.4,5.1-33,11.9-46.4,20.3
						c-15.3,9.6-27.5,20.9-36.3,33.5l-3.6,5.1l-3,5.4c-1.5,2.3-2.5,4.6-3.5,7.2c-0.6,1.4-1.2,2.8-1.8,4.1
						c-2.7,7.5-5.4,15.7-6.4,24.4c-0.6,2.9-0.8,5.6-1,8.5c-0.1,1.6-0.2,3.1-0.4,4.7c-0.1,4.5-0.1,9.8,0.1,15.6
						c0.2,8.3,0.6,16.8,1,25.8l0.4,9.9c0.5,11,1,24.1,1.2,37.4c0.1,13.5,0,26.1-0.5,38.5c-0.5,12.8-1.5,25.9-3.1,39.2
						c-1.7,14.2-4.1,27.2-7.3,39.5c-3.8,14.8-8.1,27.4-13.1,38.4c-5.7,12.6-12.6,24-20.5,34c-4.9,6.2-10.5,12-16.7,17.3
						c-1,0.8-2.4,0.7-3.2-0.3c-0.8-1-0.7-2.4,0.3-3.2c6-5.1,11.4-10.7,16.1-16.7c7.7-9.7,14.4-20.8,19.9-33
						c4.9-10.8,9.1-23.1,12.8-37.6c3.1-12.2,5.5-24.9,7.1-38.9c1.6-13.1,2.6-26.2,3.1-38.8c0.5-12.3,0.7-24.8,0.5-38.2
						c-0.2-13.3-0.7-26.3-1.2-37.3l-0.4-9.9c-0.4-9-0.8-17.5-1-25.9c-0.2-5.9-0.2-11.3-0.1-16c0.2-1.7,0.3-3.2,0.4-4.7
						c0.2-2.9,0.4-6,1-9c1-9,3.8-17.5,6.7-25.4c0-0.1,0.1-0.1,0.1-0.2c0.6-1.3,1.2-2.7,1.8-4c1.1-2.6,2.2-5.2,3.8-7.7l3-5.4
						c0-0.1,0.1-0.1,0.1-0.2l3.6-5.2c9.1-13.1,21.8-24.8,37.6-34.7c13.8-8.6,29.8-15.6,47.6-20.8c2.7-0.8,5.4-1.4,8-2
						c1.6-0.4,3.2-0.7,4.7-1.1l6.4-1.5l19.6-3.2c4.8-0.5,8.2-0.8,11.8-1c14.7-0.3,31.3,1.8,50.8,6.4c30.9,7.5,65.2,19.6,104.9,36.9
						c46.5,20.3,97.3,45.6,159.8,79.6c12.9,7,22.7,20.7,26.9,37.6c20.4,81.3,70.5,229.1,128.9,266.9c13.7,8.9,21.3,28.1,18.3,46.9
						c-10.4,66.1-18,169.6-18,246c0,63.7,5.2,97.3,16.7,108.8c5.8,5.8,13.1,5.8,21.4,5.7l2.2,0l2.2,0c8.4,0.1,15.6,0.1,21.4-5.7
						c11.6-11.5,16.7-45,16.7-108.8c0-76.5-7.6-180-18-246.1c-3-19,4.3-37.7,18.2-46.6c61-39.2,100.1-176.1,121.1-249.7
						c2.2-7.6,4.1-14.5,5.9-20.5c4.2-14.1,12.8-25.7,23.8-31.6c65.8-36,116.7-61.4,165-82.5c39.7-17.3,74-29.4,104.9-36.9
						c19.6-4.6,36.2-6.8,50.8-6.4c3.7,0.2,7.1,0.5,11.7,1l19.6,3.2l6.5,1.6c1.6,0.4,3.2,0.8,4.8,1.1c2.6,0.6,5.3,1.2,8,2
						c17.8,5.2,33.8,12.2,47.6,20.8c15.8,10,28.5,21.7,37.6,34.8l3.6,5.2c0,0.1,0.1,0.1,0.1,0.2l3.1,5.6c1.5,2.3,2.7,5,3.8,7.6
						c0.6,1.4,1.2,2.7,1.8,4c0,0.1,0.1,0.1,0.1,0.2c2.9,7.8,5.6,16.4,6.7,25.6c0.6,2.8,0.8,5.8,1,8.7c0.1,1.5,0.2,3,0.3,4.5
						c0.2,4.9,0.1,10.3,0,16.2c-0.2,8.4-0.6,17-1,26.1l-0.4,9.7c-0.5,11-1,24.1-1.2,37.3c-0.1,13.5,0,26,0.5,38.2
						c0.5,12.6,1.5,25.7,3.1,38.8c1.7,14,4,26.7,7.1,38.9c3.7,14.6,7.9,26.9,12.9,37.6c5.5,12.2,12.2,23.3,19.9,33
						c7.1,9.1,15.9,17.3,26,24.3c9.3,6.6,19.5,10.8,29.1,14.3c2.6,0.9,5.3,0.6,7.8-0.9c3.6-2.2,6-6.4,6.6-11.6
						c0.9-7-2.3-14.2-7.6-17c-4.1-2.2-8.9-5.8-14.6-11c-6.4-5.9-6.6-15.4-3.9-21.6c2.5-6.1,7.3-9.6,12.9-9.3
						c20.1,0.9,35.3-3.2,36.8-3.6c8.5-2.4,13.9-13.4,12.1-24.7c-1-6.2-4.1-11.4-8.5-14.2c-3.1-2-6.5-2.6-9.9-1.7
						c-0.2,0.1-18.5,4.8-39.7,1.7c-29.3-4.3-50.8-36-50.2-73.8l0-0.5c0.5-23.4,2.4-47.3,4.4-69.6c0.3-3.2,0.6-6.5,0.9-9.8
						c0.8-8.7,1.6-17.6,2.3-26.9c0.6-7.5,0.9-13.9,1-20.3c0-1.6-0.1-3.3-0.1-5c-0.1-5.8-0.2-11.8-1-17.6
						c-1.2-13.4-4.4-27.7-9.8-43.7c-0.6-1.6-1.3-3.3-2-5c-1.9-5-3.9-10.2-6.4-14.6l-4.9-9.6c-1.3-2.1-2.7-4.4-4.1-6.6l-1.2-1.9
						c-13.7-21.3-31.2-39-51.8-52.7c-17.5-11.6-36.7-20.8-58.7-28.1c-3.3-1-6.7-1.9-9.9-2.8c-1.7-0.4-3.3-0.9-5-1.4l-7.5-2
						l-22.4-4.4c-5-0.7-10.8-1.2-16.4-1.5c-18.7-0.5-37.7,1.6-61.7,7c-18,4-36.8,9.9-57.5,17.8c-19.3,7.3-37.9,15.2-55.3,23.4
						c-16.3,7.7-33.3,16.4-53.6,27.4c-18.9,10.3-37,21.1-52.3,30.3c-20.6,12.7-39.2,24.8-56.8,36.9c-19.2,13.2-41.6,15.3-61.5,5.8
						c-32-15.2-72.7-23.5-114.6-23.5c-41.9,0-82.6,8.3-114.6,23.5c-19.9,9.5-42.4,7.3-61.5-5.8c-17.6-12.1-36.1-24.1-56.8-36.9
						c-15.3-9.2-33.4-20.1-52.3-30.3c-20.3-11-37.4-19.7-53.6-27.4c-17.4-8.2-36-16.1-55.2-23.4c-20.7-7.9-39.5-13.7-57.5-17.8
						c-24-5.4-43-7.6-61.8-7c-5.5,0.3-11.3,0.8-16.4,1.5l-22.4,4.4l-7.4,2c-1.7,0.5-3.3,0.9-5,1.4c-3.3,0.9-6.7,1.8-10,2.8
						c-22,7.2-41.2,16.4-58.7,28.1c-20.6,13.7-38.1,31.4-51.8,52.7l-1.3,2.1c-1.4,2.2-2.8,4.3-4.1,6.6l-4.8,9.4
						c-2.5,4.5-4.5,9.7-6.4,14.7c-0.7,1.7-1.3,3.4-2,5.1c-5.3,15.9-8.5,30.2-9.7,43.5c-0.8,5.9-0.9,11.9-1,17.7
						c0,1.7-0.1,3.4-0.1,5.1c0.1,6.2,0.4,12.6,1,20.1c0.7,9.3,1.5,18.2,2.3,26.9c0.3,3.3,0.6,6.6,0.9,9.8c2,22.3,3.9,46.1,4.4,69.6
						l0,0.5c0.4,19.4-5.2,37.9-15.7,51.9c-0.8,1-2.2,1.2-3.2,0.5c-1-0.8-1.2-2.2-0.5-3.2c9.9-13.2,15.2-30.7,14.8-49.1l0-0.5
						c-0.5-23.3-2.4-47.1-4.4-69.3c-0.3-3.3-0.6-6.5-0.9-9.8c-0.8-8.7-1.6-17.6-2.3-27c-0.6-7.6-0.9-14.1-1-20.5
						c0-1.8,0.1-3.5,0.1-5.2c0.1-5.9,0.2-12.1,1-18.1c1.2-13.5,4.5-28.2,10-44.6c0.7-1.8,1.4-3.5,2-5.2c2-5.1,4-10.4,6.7-15.2
						l4.8-9.4c1.4-2.4,2.8-4.6,4.2-6.8l1.3-2.1c14.1-21.8,32-40,53.1-54c17.8-11.9,37.4-21.2,59.8-28.6c3.4-1.1,6.9-2,10.2-2.9
						c1.7-0.4,3.3-0.9,5-1.4l7.6-2l22.7-4.5c5.3-0.7,11.3-1.3,17-1.6c19.2-0.6,38.6,1.6,63,7.1c18.2,4.1,37.2,10,58.2,18
						c19.4,7.4,38.1,15.3,55.6,23.6c16.3,7.7,33.4,16.5,53.8,27.5c19,10.3,37.2,21.2,52.5,30.5c20.7,12.8,39.4,24.9,57,37
						c17.8,12.2,38.5,14.2,57,5.5c32.6-15.4,74-24,116.6-24s84,8.5,116.6,24c18.4,8.7,39.2,6.7,57-5.5c17.6-12.1,36.3-24.2,57-37
						c15.3-9.3,33.5-20.1,52.5-30.5c20.4-11,37.5-19.7,53.8-27.5c17.5-8.3,36.2-16.2,55.6-23.6c20.9-8,40-13.9,58.2-18
						c24.4-5.5,43.8-7.7,62.9-7.1c5.7,0.3,11.7,0.9,16.9,1.6l22.7,4.4l7.7,2.1c1.7,0.5,3.3,0.9,5,1.4c3.3,0.9,6.8,1.8,10.1,2.9
						c22.5,7.4,42,16.7,59.9,28.6c21.1,14,39,32.2,53.1,54l1.2,2c1.4,2.3,2.9,4.5,4.3,6.8l4.9,9.6c2.6,4.7,4.6,10,6.6,15.1
						c0.7,1.7,1.3,3.4,2,5.1c5.5,16.6,8.8,31.2,10,44.8c0.8,5.9,0.9,12.1,1,18c0,1.7,0.1,3.4,0.1,5.1c-0.1,6.6-0.4,13.1-1,20.6
						c-0.7,9.3-1.5,18.3-2.3,27c-0.3,3.3-0.6,6.5-0.9,9.8c-2,22.2-3.9,46-4.4,69.3l0,0.4c-0.6,34.9,19.8,65.3,46.3,69.2
						c20.2,3,37.6-1.6,37.8-1.6c4.6-1.2,9.4-0.4,13.6,2.2c5.4,3.5,9.3,9.8,10.5,17.3c2.2,13.5-4.7,26.9-15.4,29.9
						c-1.6,0.4-17.3,4.7-38.2,3.7c-3.5-0.2-6.7,2.3-8.5,6.5c-2,4.8-2,12.1,2.8,16.5c5.3,4.9,9.8,8.4,13.4,10.2
						c7.1,3.8,11.4,12.8,10.2,21.7c-0.8,6.6-4,12-8.8,14.9c-3.7,2.2-7.8,2.7-11.7,1.3c-9.9-3.7-20.4-8-30.1-14.9
						c-10.5-7.3-19.5-15.8-26.9-25.2c-7.9-10-14.8-21.4-20.5-34c-5-11-9.3-23.6-13.1-38.4c-3.2-12.4-5.6-25.3-7.3-39.5
						c-1.6-13.3-2.7-26.5-3.1-39.2c-0.5-12.3-0.7-24.9-0.5-38.4c0.2-13.3,0.7-26.4,1.2-37.4l0.4-9.7c0.4-9.1,0.8-17.6,1-26
						c0.2-5.9,0.2-11.2,0.1-15.8c-0.1-1.4-0.3-2.9-0.4-4.5c-0.2-2.9-0.4-5.6-0.9-8.3c-1-8.9-3.7-17.1-6.4-24.6
						c-0.7-1.4-1.2-2.7-1.8-4.1c-1.1-2.5-2.1-4.9-3.5-7l-3.1-5.6l-3.6-5.1c-8.8-12.6-21-23.9-36.3-33.5c-13.4-8.4-29-15.2-46.4-20.3
						c-2.5-0.7-5.2-1.3-7.8-1.9c-1.6-0.4-3.2-0.7-4.8-1.1l-6.3-1.5l-19.3-3.1c-4.5-0.5-7.8-0.7-11.3-0.9
						c-14.1-0.3-30.3,1.8-49.5,6.3c-30.6,7.4-64.7,19.4-104.2,36.6c-48.2,21-99,46.4-164.7,82.3c-9.9,5.4-17.8,15.9-21.6,28.9
						c-1.8,6-3.7,12.8-5.9,20.4c-21.2,74.1-60.6,212.1-123,252.2c-12.2,7.8-18.8,25.1-16.1,42c10.5,66.4,18.1,170.2,18.1,246.9
						c0,65.9-5.4,99.4-18.1,112C1309.9,1425.1,1301.8,1425.5,1293.9,1425.5z"/>
				</g>
			</g>
			<rect x="491.4" y="385.9" width="453.6" height="51.5"/>
		</g>
		<g>
			<g>
				<path d="M1150.3,1981.3c-0.4,0-0.9-0.1-1.3-0.4c-160.8-109.9-223.9-252.4-224.5-253.8c-0.5-1.2,0-2.5,1.2-3c1.2-0.5,2.5,0,3,1.2
					c0.6,1.4,63.2,142.7,222.9,251.9c1,0.7,1.3,2.1,0.6,3.2C1151.8,1980.9,1151,1981.3,1150.3,1981.3z"/>
				<path d="M1017.3,1949.8c-0.5,0-0.9-0.1-1.3-0.4c-0.4-0.3-39.2-28.4-81.9-78.8c-39.4-46.6-90.3-122.3-109.1-218.8
					c-0.2-1.2,0.6-2.4,1.8-2.7c1.2-0.2,2.4,0.6,2.7,1.8c35.7,182.7,187.7,293.6,189.2,294.7c1,0.7,1.3,2.2,0.5,3.2
					C1018.8,1949.5,1018.1,1949.8,1017.3,1949.8z"/>
			</g>
			<g>
				<path d="M2091.6,1575.4c-0.5,0-1-0.2-1.4-0.5c-1-0.8-1.2-2.2-0.4-3.2l10.8-14.1c0.8-1,2.2-1.2,3.2-0.4c1,0.8,1.2,2.2,0.4,3.2
					l-10.8,14.1C2093,1575.1,2092.3,1575.4,2091.6,1575.4z"/>
				<path d="M2066.4,1608.3c-0.5,0-1-0.2-1.4-0.5c-1-0.8-1.2-2.2-0.4-3.2l10.8-14.1c0.8-1,2.2-1.2,3.2-0.4c1,0.8,1.2,2.2,0.4,3.2
					l-10.8,14.1C2067.8,1608,2067.1,1608.3,2066.4,1608.3z"/>
				<path d="M2075,1577.6c-0.5,0-1-0.2-1.4-0.5l-14.1-10.8c-1-0.8-1.2-2.2-0.4-3.2c0.8-1,2.2-1.2,3.2-0.4l14.1,10.8
					c1,0.8,1.2,2.2,0.4,3.2C2076.4,1577.3,2075.7,1577.6,2075,1577.6z"/>
				<path d="M2107.9,1602.8c-0.5,0-1-0.2-1.4-0.5l-14.1-10.8c-1-0.8-1.2-2.2-0.4-3.2c0.8-1,2.2-1.2,3.2-0.4l14.1,10.8
					c1,0.8,1.2,2.2,0.4,3.2C2109.2,1602.5,2108.6,1602.8,2107.9,1602.8z"/>
			</g>
		</g>
		<g>
			<path d="M404.9,994.8c-23.3,17.7-28.7,57.4,10.1,61.7c11,1.2,22.1,0.9,33-0.9c3.8-0.6,7.6-1.4,11.1-2.9
				c9.5-3.9,16.9-12.8,18.9-23c2.1-10.1-1.2-21.2-8.5-28.5c-3.2-3.3-7.2-5.8-11.3-8c-10.6-5.5-22.9-8.2-34.8-6.4
				C416.6,987.8,410.3,990.7,404.9,994.8z"/>
			<path d="M472.2,1026.4c-4.6,0.6-9.3,0.3-13.6-1.4c-7.7-2.9-13.4-9.3-18.5-15.8c-33.1-42.1-62.8-95.5-24.5-145.1
				c24.7-32,75.2-45.4,112.8-30.4c6.7,2.7,23.2,9.2,29.2,25.3c6.3,16.8-2.9,33.5-7.9,42.6c-7.7,14.1-21.5,21.3-26.2,36.7
				c-8.1,26.6-11.5,70.8-39.9,84.6C480,1024.6,476.1,1025.9,472.2,1026.4z"/>
			<g>
				<path d="M687.2,1982.2l-13.5,29.5c0.6,2.5,2,5,4.7,8.1c14.3,16.3,53.1,3.3,62.3,0.2c34.1-11.5,38.4-25.6,69-36.4
					c21.1-7.4,40-8.2,52.2-7.7c-1.4-3-4-7.7-8.6-11.9c-6.6-6-17.8-11.9-36.2-12C780.3,1951.8,687.2,1982.2,687.2,1982.2z"/>
				<g>
					<g>
						<path class="st0" d="M803.7,2119.8c0,0,62.5,24.1,62.4-17c0-1.3-51.4-167.3-51.4-167.3l-73.6,39.9L803.7,2119.8z"/>
						<path d="M838.6,2129.1c-16.8,0-34.6-6.8-35.7-7.2c-0.6-0.2-1-0.7-1.3-1.2l-62.5-144.5c-0.5-1.1,0-2.4,1-2.9l73.6-39.9
							c0.6-0.3,1.3-0.4,2-0.1c0.6,0.3,1.1,0.8,1.3,1.4c51.5,166.3,51.5,167.6,51.5,168c0,9.6-3.2,16.8-9.7,21.2
							C853.2,2127.7,846,2129.1,838.6,2129.1z M805.4,2117.9c5.6,2,36.2,12.2,50.8,2.2c5.1-3.5,7.6-9.1,7.7-17.1
							c-1.5-5.7-33-108-50.4-164.2l-69.3,37.5L805.4,2117.9z"/>
					</g>
					<g>
						<g>
							<path class="st0" d="M796,2162.7h154.9c4.2,0,7.4-3.7,6.9-7.8l-1.2-8.8c-2.9-7.8-8.6-14.3-15.9-18.3l-84-45.1
								c0,0-27.1,5.8-24.8,34.2c0,0-18.2-17.5-35.1-5.3c0,0-6.6,21.9-6,46.1C790.8,2160.5,793.2,2162.7,796,2162.7z"/>
							<path d="M950.8,2165H796c-4,0-7.4-3.3-7.5-7.3c-0.5-24.3,5.8-45.9,6.1-46.8c0.1-0.5,0.4-0.9,0.8-1.2
								c13.3-9.7,27.3-2.4,34,2.3c0.9-25.8,26.4-31.6,26.7-31.6c0.5-0.1,1.1,0,1.6,0.2l84,45.1c7.9,4.2,13.9,11.1,17,19.5
								c0.1,0.2,0.1,0.3,0.1,0.5l1.2,8.8c0.3,2.6-0.5,5.3-2.2,7.3C956,2163.9,953.5,2165,950.8,2165z M798.8,2113
								c-1.1,4-6.2,23.5-5.7,44.6c0,1.6,1.3,2.8,2.9,2.8h154.9c1.3,0,2.6-0.6,3.5-1.6c0.9-1,1.3-2.3,1.1-3.7l-1.1-8.6
								c-2.7-7.2-8-13.2-14.8-16.8l-83.2-44.7c-4.3,1.2-24.1,7.9-22.2,31.6c0.1,0.9-0.4,1.8-1.3,2.3c-0.9,0.4-1.9,0.2-2.6-0.4
								C829.6,2117.9,813.6,2102.9,798.8,2113z"/>
						</g>
						<path d="M907.5,2133.2c-0.1,0-0.2,0-0.4,0c-40.7-6.4-64.8-27.8-65.8-28.7c-0.9-0.8-1-2.3-0.2-3.2c0.8-0.9,2.3-1,3.2-0.2
							c0.2,0.2,24.2,21.4,63.4,27.5c1.3,0.2,2.1,1.4,1.9,2.6C909.6,2132.4,908.6,2133.2,907.5,2133.2z"/>
						<path d="M952,2155H796.3c-1.3,0-2.3-1-2.3-2.3c0-1.3,1-2.3,2.3-2.3H952c1.3,0,2.3,1,2.3,2.3C954.3,2153.9,953.3,2155,952,2155
							z"/>
					</g>
				</g>
				<path d="M473.4,2026c-13.7-3-39.9-8.9-45.7-26.8c-4.4-13.6,5-27.8,7.2-31c26.5-39.8,114.1-51.1,163.7-12.1
					c26.2,20.6,43.9,56.8,34.6,68.3c-5.6,7-17.5,0.3-46.5-2.3C532.5,2017.5,518.7,2036,473.4,2026z"/>
				<g>
					<path class="st0" d="M481,1951.9c-2.2,1.4,26.1,174.2,26.1,174.2l56.5,6.9l-2.5-166.5L481,1951.9z"/>
					<path d="M563.6,2135.2c-0.1,0-0.2,0-0.3,0l-56.5-6.9c-1-0.1-1.8-0.9-2-1.9c-0.1-0.4-7.2-43.7-13.9-86.6
						c-13.8-88.2-13-88.7-11.2-89.9c0.5-0.3,1.1-0.4,1.6-0.3l80.2,14.6c1.1,0.2,1.9,1.1,1.9,2.2l2.5,166.5c0,0.7-0.3,1.3-0.8,1.7
						C564.7,2135,564.2,2135.2,563.6,2135.2z M509.1,2124l52.2,6.4l-2.4-161.9l-75.6-13.8C484.5,1970.6,498.9,2061.7,509.1,2124z"/>
				</g>
				<g>
					<g>
						<path class="st0" d="M655.2,2162.7H499.6c0,0-5.7-38.7,3.2-55.9l4.8,5.4c2.5,2.8,6.8,3,9.6,0.5c6.2-5.6,17-14.6,26.4-18.9
							c18.2-8.3,79.2,32.9,102.5,46.9c5.5,3.3,8.9,9.3,8.9,15.7V2162.7z"/>
						<path d="M655.2,2165H499.6c-1.1,0-2.1-0.8-2.3-2c-0.2-1.6-5.7-39.6,3.5-57.3c0.3-0.7,1-1.1,1.7-1.2c0.7-0.1,1.5,0.2,2,0.7
							l4.8,5.4c0.8,0.9,1.9,1.4,3.1,1.5c1.2,0.1,2.4-0.3,3.3-1.2c7.2-6.5,17.7-15.1,27-19.3c15.4-7,54.2,15.7,92.6,39.6
							c4.6,2.9,8.7,5.4,12,7.4c6.2,3.7,10,10.5,10,17.7v6.1C657.5,2164,656.5,2165,655.2,2165z M501.6,2160.4h151.3v-3.9
							c0-5.6-3-10.9-7.8-13.8c-3.3-2-7.5-4.6-12.1-7.5c-25.8-16.1-73.8-46-88.3-39.3c-9.2,4.2-20.2,13.4-25.8,18.5
							c-1.8,1.6-4.1,2.5-6.6,2.3c-2.4-0.1-4.7-1.2-6.3-3l-2.5-2.8C497.9,2126.1,500.7,2153,501.6,2160.4z"/>
					</g>
					<path d="M647.9,2152.9h-145c-1.3,0-2.3-1-2.3-2.3c0-1.3,1-2.3,2.3-2.3h145c1.3,0,2.3,1,2.3,2.3
						C650.2,2151.8,649.2,2152.9,647.9,2152.9z"/>
					<path d="M582.6,2134.2c-0.3,0-0.7-0.1-1-0.2l-44.9-22.7c-1.1-0.6-1.6-1.9-1-3.1c0.6-1.1,2-1.6,3.1-1l44.9,22.7
						c1.1,0.6,1.6,1.9,1,3.1C584.3,2133.8,583.5,2134.2,582.6,2134.2z"/>
				</g>
				<g>
					<path class="st0" d="M862,1975.8c-29.9-95-60.1-190-90.6-284.8c-41.1-127.9-82.6-255.6-124.7-383.1c-65.3,7.7-211.2-42-196,23
						c7.6,32.2,6.8,39.4,6,51.3c-6.3,93.7-16.1,160.7-15.8,184.1c0.3,20.8,1.1,83.2-0.3,168.5c-0.2,13.9-0.6,28.8-1.2,46.7
						c-3.2,90.2-9.2,112.2-9.7,185.6c-0.1,10.3,0,20.3,0.1,30c33.3-6.5,71.2-8.3,111.5,0.8c31.9,7.2,35.5,14.5,64.1,18.4
						c9.4,1.3,18.2,1.7,26.6,1.5c-23.5-313.9-21.8-385.9-21.8-385.9c8.9,69.7,20.1,142.5,33.8,217.9c10.1,55.4,21,108.9,32.6,160.6
						c33.9-10,63.7-27.6,104.2-35.1C802,1971.7,829,1970,862,1975.8z"/>
					<path d="M628.2,2020.4c-7.6,0-15.2-0.5-23-1.6c-15.9-2.1-24.1-5.3-33.6-8.9c-7.7-2.9-16.3-6.2-30.7-9.5
						c-35.3-8-72.5-8.2-110.6-0.8c-0.7,0.1-1.4,0-1.9-0.5c-0.5-0.4-0.8-1.1-0.8-1.7c-0.1-10.6-0.2-20.4-0.1-30.1
						c0.3-39.8,2.1-64.5,4.3-93.1c1.8-24,3.9-51.2,5.4-92.6c0.6-17.3,1-32.1,1.2-46.7c0.9-57.4,1-114.1,0.3-168.5
						c-0.1-11.3,2-32.4,5-61.7c3.3-32.8,7.5-73.6,10.8-122.6l0.1-0.8c0.8-11.3,1.3-18.7-6-49.9c-2.5-10.5-1-18.9,4.4-25
						c15.9-17.7,62-12,110.8-5.9c30.1,3.7,61.2,7.6,82.7,5.1c1.1-0.1,2.1,0.5,2.4,1.6c41.9,126.9,83.8,255.8,124.7,383.1
						c30.3,94.4,60.8,190.2,90.6,284.8c0.2,0.8,0.1,1.6-0.5,2.2c-0.5,0.6-1.3,0.9-2.1,0.7c-27.7-4.9-54.7-4.9-80.3-0.2
						c-24.5,4.5-45.1,12.8-65.1,20.8c-13.1,5.3-25.6,10.3-38.9,14.2c-0.6,0.2-1.3,0.1-1.8-0.2c-0.5-0.3-0.9-0.9-1.1-1.5
						c-11.9-53.5-22.9-107.6-32.6-160.7c-10.7-58.9-20.3-118.7-28.5-178.2c1.6,49.2,6.5,151.1,21,345.6c0,0.6-0.2,1.2-0.6,1.7
						c-0.4,0.5-1,0.7-1.6,0.8C630.8,2020.3,629.5,2020.4,628.2,2020.4z M484.8,1989.6c19.4,0,38.5,2.1,57,6.3
						c14.7,3.3,23.5,6.7,31.3,9.7c9.3,3.5,17.3,6.6,32.6,8.7c8.1,1.1,15.9,1.6,23.8,1.5c-23.1-308.4-21.6-382.9-21.6-383.7
						c0-1.2,1-2.2,2.2-2.2c1.2,0,2.2,0.8,2.4,2c9.3,72.6,20.7,145.9,33.8,217.8c9.5,52.3,20.3,105.4,32,158.1
						c12.3-3.8,23.9-8.4,36.2-13.4c20.2-8.1,41-16.5,66-21.1c25-4.6,51.3-4.8,78.2-0.4c-29.4-93.5-59.5-188.1-89.4-281.3
						c-40.7-126.7-82.4-255-124.1-381.3c-21.9,2.2-52.4-1.6-81.9-5.3c-45.5-5.6-92.6-11.5-106.9,4.4c-4.4,4.9-5.5,11.7-3.4,20.9
						c7.5,31.9,6.9,39.6,6.1,51.2l-0.1,0.8c-3.3,49-7.5,89.9-10.8,122.8c-3,29.1-5.1,50.1-5,61.2c0.7,54.5,0.6,111.2-0.3,168.6
						c-0.2,14.6-0.6,29.5-1.3,46.8c-1.5,41.4-3.6,68.7-5.4,92.7c-2.2,28.5-4.1,53.2-4.3,92.8c-0.1,8.8,0,17.8,0.1,27.3
						C449.8,1991.2,467.5,1989.6,484.8,1989.6z"/>
				</g>
				<path d="M610.3,1629.2c-1.2,0-2.3-1-2.3-2.2l-4.2-153.9c0-0.8,0.4-1.5,1-1.9l20-13.8c1-0.7,2.5-0.5,3.2,0.6
					c0.7,1,0.5,2.5-0.6,3.2l-19,13.1l4.1,152.7C612.6,1628.1,611.6,1629.2,610.3,1629.2C610.3,1629.2,610.3,1629.2,610.3,1629.2z"/>
			</g>
			<g>
				<path d="M441.1,1170.6c-26.8-30.2-53.6-60.4-80.4-90.5c-12.5,39.7-49,136.4-32.9,251.4c12.3,88,107.3,143.6,132.9,172.1
					c6.3-7.1,11.6-15.4,16-24.2c-7.5-13.5-18.7-33.7-32.4-58.3c-26.3-47-31.5-56-33.7-60.2C395.4,1332,391.1,1278.5,441.1,1170.6z"
					/>
			</g>
			<g>
				<path d="M440.5,1362.1c18.6,12.8,32.2-0.2,111-13.6c64.6-11,91.8-8.4,110.9-32.2c10.5-13.2,13.8-28.3,14.9-39.1
					c-6.9-32.9-13.7-66.1-20.4-99.7c-9.2-46.2-17.8-91.9-26.1-137.1c-45.9-4-84.9-2.2-114.5,0.9c-38.6,4-67.8,10.9-79.7,13.9
					c-29.2,7.3-54.3,16.2-75.9,24.9c21.9,31.8,43.9,63.7,65.8,95.5c-7,22.2-15.2,57.8-12.4,101.5
					C416.5,1314.3,418.6,1347,440.5,1362.1z"/>
				<g>
					<path d="M793.1,1032.9c-3.1,11.3-8.9,27.7-20.1,45.2c-10.4,16.1-32.4,50.5-59.2,51.3c-27.6,0.8-47.8-57.9-82.9-89
						c-4.5,4.2-30.6,44.5-23.1,93.8c8.7,57,75.3,90.9,121.2,83.3c57.3-9.5,109.1-88.2,90.3-186.3L793.1,1032.9z"/>
					<g>
						<g>
							<path class="st0" d="M789,993.4l13.9-46.4c1-3.2,4.1-5.3,7.4-4.9c3.8,0.4,6.5,3.8,6.1,7.6l-2,19l18.5,14.8
								c5.7,4.6,7.9,12.2,5.6,19.1l-6.2,18.3c-3.1,9.2-11.5,15.5-21.1,16l-6.5,0.3c-10,0.5-19.2-5.4-22.9-14.7l-4.4-11
								c-2.7-6.9,0.9-14.6,7.9-17L789,993.4z"/>
							<path d="M803.7,1039.6c-10.5,0-20-6.4-23.9-16.2l-4.4-11c-1.6-3.9-1.4-8.2,0.3-12c1.8-3.8,5-6.7,9-8l2.4-0.8l13.6-45.3
								c1.3-4.3,5.5-7,9.9-6.5c5,0.6,8.7,5.1,8.1,10.1l-1.9,17.8l17.5,14.1c6.4,5.1,9,13.8,6.3,21.6l-6.2,18.3
								c-3.4,10.1-12.5,17-23.2,17.5l-6.5,0.3C804.5,1039.6,804.1,1039.6,803.7,1039.6z M809.6,944.3c-2,0-3.9,1.3-4.5,3.3
								l-13.9,46.4c-0.2,0.7-0.8,1.3-1.5,1.5l-3.6,1.2c-2.8,0.9-5,2.9-6.3,5.6c-1.2,2.7-1.3,5.6-0.2,8.4l4.4,11
								c3.3,8.4,11.6,13.7,20.7,13.3l6.5-0.3c8.8-0.4,16.2-6.1,19-14.4l6.2-18.3c2-6,0.1-12.6-4.9-16.6l-18.5-14.8
								c-0.6-0.5-0.9-1.3-0.8-2l2-19c0.3-2.5-1.6-4.8-4.1-5.1C809.9,944.3,809.8,944.3,809.6,944.3z M789,993.4L789,993.4L789,993.4
								z"/>
						</g>
						<g>
							<path class="st0" d="M789,993.4l16.1,2c0,0,2.4,13.1-7.7,12.8L789,993.4z"/>
							<path d="M797.6,1010.6c-0.1,0-0.2,0-0.3,0c-1.3,0-2.3-1.1-2.2-2.3c0-1.2,1.1-2.2,2.3-2.2c0.1,0,0.2,0,0.3,0
								c1.7,0,2.9-0.5,3.8-1.5c1.5-1.8,1.7-4.9,1.6-7l-14.3-1.8c-1.3-0.2-2.1-1.3-2-2.6c0.2-1.3,1.3-2.1,2.6-2l16.1,2
								c1,0.1,1.8,0.9,2,1.9c0.1,0.8,1.3,8.1-2.4,12.4C803.7,1008.9,801.4,1010.6,797.6,1010.6z"/>
						</g>
						<g>
							<path class="st0" d="M819.4,972.7l-3.9,23L819.4,972.7z"/>
							<path d="M815.5,998.1c-0.1,0-0.3,0-0.4,0c-1.2-0.2-2.1-1.4-1.9-2.6l3.9-23c0.2-1.2,1.4-2.1,2.6-1.9c1.2,0.2,2.1,1.4,1.9,2.6
								l-3.9,23C817.6,997.3,816.6,998.1,815.5,998.1z"/>
						</g>
						<g>
							<path class="st0" d="M830.3,983l-3.3,18.3L830.3,983z"/>
							<path d="M827,1003.6c-0.1,0-0.3,0-0.4,0c-1.2-0.2-2.1-1.4-1.8-2.7l3.3-18.3c0.2-1.2,1.4-2.1,2.7-1.8c1.2,0.2,2.1,1.4,1.8,2.7
								l-3.3,18.3C829.1,1002.8,828.1,1003.6,827,1003.6z"/>
						</g>
					</g>
				</g>
				<path d="M661.4,1189.3c-1,0-2-0.7-2.2-1.8l-18.3-80.7c-0.3-1.2,0.5-2.5,1.7-2.7c1.2-0.3,2.5,0.5,2.7,1.7l18.3,80.7
					c0.3,1.2-0.5,2.5-1.7,2.7C661.8,1189.3,661.6,1189.3,661.4,1189.3z"/>
			</g>
			<path d="M444.5,1517.6c-0.9,0-1.8-0.5-2.1-1.4c-0.5-1.2,0.1-2.5,1.3-3c54.5-22.1,46.5-144.4,46.4-145.7c-0.1-1.3,0.9-2.4,2.1-2.4
				c1.2-0.1,2.4,0.9,2.4,2.1c0.4,5.2,8.3,126.9-49.3,150.3C445.1,1517.6,444.8,1517.6,444.5,1517.6z"/>
			<g>
				<g>
					<path class="st0" d="M564.3,1038c-16.5-2.7-28.4-17.4-27.5-34.2l1.4-26c15.7-1.2,28.8-8.7,28.7-13.7c0-2.4-5.8-26-9.4-35.8
						c3-2.5,6.7-9.3,0.2-13.5c-6.6-4.2-21.3-30.8-21.3-30.8c-18.2-21.1-23.4,8.6-37,11.1c-9.4,1.7-14.5,7.4-10.9,19.7
						c3.5,12.3-3.2,6.1-10.1,2.6c-6.9-3.5-11.6-0.8-7.8,10.4c3.8,11.2,17.6,17.9,17.6,17.9l6.5,12.9l-13.8,63.2
						c-2.6,12-11.2,21.7-22.7,25.8l-19,6.8l100,52.3l48.3-65L564.3,1038z"/>
					<path d="M539.1,1109.1c-0.4,0-0.7-0.1-1.1-0.3l-100-52.3c-0.8-0.4-1.3-1.3-1.2-2.2c0.1-0.9,0.7-1.7,1.5-2l19-6.8
						c10.8-3.9,18.8-12.9,21.3-24.2l13.6-62.4l-5.8-11.5c-3-1.6-14.5-8.3-18.1-18.8c-2.2-6.5-1.9-11,0.8-13.4
						c1.3-1.2,4.5-2.7,10.2,0.2c1.3,0.7,2.6,1.4,3.8,2.1c1.2,0.7,2.9,1.7,4,2.1c-0.1-0.7-0.3-2-0.9-4.1c-1.9-6.4-1.6-11.7,0.8-15.6
						c2.2-3.6,6.2-6,11.9-7c4.1-0.7,7.6-4.9,11.1-8.9c4.2-4.8,8.5-9.8,14.4-9.8c4.3,0,8.8,2.7,13.6,8.3c0.1,0.1,0.2,0.2,0.3,0.4
						c5.8,10.5,16.1,27.1,20.5,29.9c3.7,2.3,4.6,5.3,4.7,7.4c0.2,3.3-1.5,6.5-3.4,8.7c3.6,10.5,9,32.3,9,35.2
						c0.1,6.7-13.7,14.1-28.8,15.8l-1.3,24c-0.8,15.6,10.2,29.3,25.6,31.8l23.1,3.8c0.8,0.1,1.5,0.7,1.8,1.4
						c0.3,0.7,0.2,1.6-0.3,2.2l-48.3,65C540.5,1108.8,539.8,1109.1,539.1,1109.1z M444.9,1054.9l93.6,49l44.9-60.4l-19.4-3.2
						c-17.7-2.9-30.4-18.6-29.5-36.6l1.4-26c0.1-1.1,1-2.1,2.1-2.2c16-1.3,26.6-8.7,26.6-11.4c-0.1-2.3-5.6-25.1-9.2-35
						c-0.3-0.9-0.1-2,0.7-2.6c1.5-1.3,3.1-3.8,3-6c-0.1-1.5-0.9-2.7-2.6-3.8c-6.7-4.3-19.9-27.8-21.9-31.4c-3.8-4.3-7.1-6.6-10-6.6
						c0,0,0,0,0,0c-3.9,0-7.3,4-11,8.2c-4,4.6-8,9.3-13.7,10.4c-4.3,0.8-7.3,2.4-8.8,4.9c-1.7,2.7-1.8,6.8-0.3,11.9
						c1.3,4.5,1.7,7.8-0.4,9.5c-2.4,1.8-5.5,0.1-9.4-2.2c-1.1-0.7-2.3-1.4-3.6-2c-2.9-1.4-4.6-1.4-5.2-0.8c-0.8,0.7-1.2,3.4,0.5,8.4
						c3.4,10.1,16.3,16.5,16.4,16.5c0.4,0.2,0.8,0.6,1,1l6.5,12.9c0.2,0.5,0.3,1,0.2,1.5l-13.8,63.2c-2.8,12.8-11.8,23.1-24.2,27.5
						L444.9,1054.9z"/>
				</g>
				<path d="M532.4,980.8c-14.7,0-21.1-13.5-21.2-13.6c-0.5-1.1,0-2.5,1.1-3c1.2-0.5,2.5,0,3,1.1c0.3,0.6,6.8,14,22.2,10.4
					c1.2-0.3,2.5,0.5,2.8,1.7c0.3,1.2-0.5,2.5-1.7,2.8C536.4,980.6,534.3,980.8,532.4,980.8z"/>
			</g>
		</g>
		<g>
			<g>
				<path class="st0" d="M1481.2,1169.3c10.1,225.9,132.5,328,255,403.8l-5.8,32.1c-124.7,69.1-250.8,224.6-247.9,429.7l604.8-7.7
					c-4-156.6-145.9-354.1-249-419.1l-2.9-35c163.3-96.2,233.3-227.5,250.9-403.3L1481.2,1169.3z"/>
				<path d="M1482.5,2037.2c-1.3,0-2.3-1-2.3-2.3c-1.3-94.4,25.1-186.8,76.4-267.1c43.8-68.5,104.7-126.8,171.7-164.1l5.4-29.5
					c-126.6-78.6-244.9-182.3-254.8-404.8c0-0.6,0.2-1.2,0.6-1.7s1-0.7,1.7-0.7l605.1,0.6c0.6,0,1.3,0.3,1.7,0.8
					c0.4,0.5,0.6,1.1,0.6,1.8c-9.2,92-32.5,168-71.1,232.4c-41,68.4-99.8,124.6-179.7,171.9l2.7,32.4c52.8,33.6,113,99,161.4,175.3
					c54.7,86.3,85.9,173.4,87.7,245.1c0,0.6-0.2,1.2-0.6,1.6c-0.4,0.4-1,0.7-1.6,0.7L1482.5,2037.2
					C1482.6,2037.2,1482.5,2037.2,1482.5,2037.2z M1483.6,1171.6c10.6,219.6,128.2,321.8,253.8,399.6c0.8,0.5,1.2,1.4,1,2.4
					l-5.8,32.1c-0.1,0.7-0.5,1.3-1.1,1.6c-115.3,63.9-248.8,213.5-246.7,425.3l600.2-7.6c-2.4-70.5-33.2-155.7-86.9-240.4
					c-47.6-75-109.2-141.9-160.9-174.5c-0.6-0.4-1-1-1.1-1.7l-2.9-35c-0.1-0.9,0.4-1.7,1.1-2.2c153.3-90.4,230.4-213.5,249.5-399
					L1483.6,1171.6z"/>
			</g>
			<g>
				<path class="st0" d="M2088.7,1169.9h-608.6c-19.6,0-35.4-15.9-35.4-35.4v-29.7c0-19.6,15.9-35.4,35.4-35.4h608.6
					c19.6,0,35.4,15.9,35.4,35.4v29.7C2124.1,1154,2108.2,1169.9,2088.7,1169.9z"/>
				<path d="M2088.7,1172.1h-608.6c-20.8,0-37.7-16.9-37.7-37.7v-29.7c0-20.8,16.9-37.7,37.7-37.7h608.6c20.8,0,37.7,16.9,37.7,37.7
					v29.7C2126.4,1155.2,2109.5,1172.1,2088.7,1172.1z M1480.1,1071.5c-18.3,0-33.2,14.9-33.2,33.2v29.7c0,18.3,14.9,33.2,33.2,33.2
					h608.6c18.3,0,33.2-14.9,33.2-33.2v-29.7c0-18.3-14.9-33.2-33.2-33.2H1480.1z"/>
			</g>
			<path d="M1792.4,1568.9c111.9-60,174.7-122.9,197.5-199.9h-428.7c47.3,87.5,183.3,178.2,216.3,199.3
				C1782.1,1571.1,1787.7,1571.4,1792.4,1568.9z"/>
			<path d="M2051.6,1926l-533.4-2.9c-12.9,37.2-16,72.5-17.2,107.9l571.1,20.7C2072.1,2020.5,2060.5,1958.3,2051.6,1926z"/>
			<g>
				<path class="st0" d="M2089.8,2127.8H1476c-14.1,0-25.5-11.4-25.5-25.5v-49.5c0-14.1,11.4-25.5,25.5-25.5h613.8
					c14.1,0,25.5,11.4,25.5,25.5v49.5C2115.4,2116.4,2103.9,2127.8,2089.8,2127.8z"/>
				<path d="M2089.8,2130.1H1476c-15.3,0-27.8-12.5-27.8-27.8v-49.5c0-15.3,12.5-27.8,27.8-27.8h613.8c15.3,0,27.8,12.5,27.8,27.8
					v49.5C2117.7,2117.6,2105.2,2130.1,2089.8,2130.1z M1476,2029.5c-12.8,0-23.2,10.4-23.2,23.2v49.5c0,12.8,10.4,23.2,23.2,23.2
					h613.8c12.8,0,23.2-10.4,23.2-23.2v-49.5c0-12.8-10.4-23.2-23.2-23.2H1476z"/>
			</g>
			<path d="M1829.6,1678.3c0,27.6-19.1,50.1-42.8,50.1c-23.6,0-42.8-22.4-42.8-50.1s39.6-65.9,43.3-65.6
				C1787.3,1612.7,1829.6,1650.7,1829.6,1678.3z"/>
			<path class="st0" d="M2026.9,1894.5c-0.9,0-1.8-0.5-2.1-1.4c-41.1-101.1-94.2-176.6-162.6-230.9c-1-0.8-1.2-2.2-0.4-3.2
				c0.8-1,2.2-1.2,3.2-0.4c69,54.8,122.7,130.9,164,232.8c0.5,1.2-0.1,2.5-1.3,3C2027.5,1894.4,2027.2,1894.5,2026.9,1894.5z"/>
			<path class="st0" d="M1554.5,1355c-0.9,0-1.7-0.5-2.1-1.4c-21.9-50.5-36.7-104.1-43.9-159.6c-0.2-1.3,0.7-2.4,2-2.6
				c1.2-0.2,2.4,0.7,2.6,2c7.2,55,21.8,108.2,43.6,158.3c0.5,1.2,0,2.5-1.2,3C1555.1,1354.9,1554.8,1355,1554.5,1355z"/>
		</g>
		<g>
			<g>
				<path class="st0" d="M1492,2153.9l164.7-2.3c11.6,0.4,21.1-9.2,20.4-20.9l-17.7-330c-0.6-10.9-9.7-19.4-20.6-19.2l-232.4,4.2
					L1492,2153.9z"/>
				<path d="M1492,2156.2c-1.1,0-2-0.7-2.2-1.8l-85.5-368.1c-0.2-0.7,0-1.4,0.4-1.9c0.4-0.5,1.1-0.9,1.8-0.9l232.4-4.2
					c0.1,0,0.3,0,0.4,0c12,0,21.9,9.3,22.5,21.4l17.7,330c0.3,6.2-2,12.2-6.3,16.7c-4.3,4.4-10.3,6.9-16.5,6.6L1492,2156.2
					C1492,2156.2,1492,2156.2,1492,2156.2z M1409.4,1788.1l84.5,363.5l162.9-2.2c5.1,0.1,9.7-1.7,13.2-5.2c3.5-3.5,5.3-8.2,5-13.2
					l-17.7-330c-0.5-9.6-8.4-17-18-17c-0.1,0-0.2,0-0.3,0L1409.4,1788.1z"/>
			</g>
			<path class="st0" d="M1590.2,2159.2H1231c-10.3,0-17.9-8.4-16.8-18.7l34.5-345.3c1-10.3,10.2-18.7,20.6-18.7h359.2
				c10.3,0,17.9,8.4,16.8,18.7l-34.5,345.3C1609.7,2150.9,1600.5,2159.2,1590.2,2159.2z"/>
			<g>
				<path class="st0" d="M1640.5,1842.8h-396.6l4.8-47.6c1-10.3,10.2-18.7,20.6-18.7h359.2c10.3,0,17.9,8.4,16.8,18.7L1640.5,1842.8
					z"/>
				<path d="M1640.5,1845.1h-396.6c-0.6,0-1.3-0.3-1.7-0.8c-0.4-0.5-0.6-1.1-0.6-1.8l4.8-47.6c1.1-11.4,11.4-20.8,22.8-20.8h359.2
					c5.6,0,10.7,2.2,14.3,6.2c3.6,4,5.3,9.4,4.8,15l-4.8,47.6C1642.6,1844.2,1641.6,1845.1,1640.5,1845.1z M1246.4,1840.5h392
					l4.5-45.5c0.4-4.4-0.8-8.4-3.6-11.5c-2.7-3-6.6-4.7-10.9-4.7h-359.2c-9.2,0-17.4,7.5-18.3,16.6L1246.4,1840.5z"/>
			</g>
			<path d="M1590.2,2161.5H1231c-5.6,0-10.7-2.2-14.3-6.2c-3.6-4-5.3-9.4-4.8-15l34.5-345.3c1.1-11.4,11.4-20.8,22.8-20.8h359.2
				c5.6,0,10.7,2.2,14.3,6.2c3.6,4,5.3,9.4,4.8,15l-34.5,345.3C1611.9,2152.2,1601.6,2161.5,1590.2,2161.5z M1269.2,1778.8
				c-9.2,0-17.4,7.5-18.3,16.6l-34.5,345.3c-0.4,4.4,0.8,8.4,3.6,11.5c2.7,3,6.6,4.7,10.9,4.7h359.2c9.2,0,17.4-7.5,18.3-16.6
				l34.5-345.3c0.4-4.4-0.8-8.4-3.6-11.5c-2.7-3-6.6-4.7-10.9-4.7H1269.2z"/>
			<g>
				<path d="M1319.7,2032.2h-43.9c-5.7,0-9.8-4.6-9.2-10.2l4.4-44.3c0.6-5.7,5.6-10.2,11.3-10.2h43.9c5.7,0,9.8,4.6,9.2,10.2
					l-4.4,44.3C1330.4,2027.6,1325.3,2032.2,1319.7,2032.2z"/>
				<path d="M1403.4,2032.2h-43.9c-5.7,0-9.8-4.6-9.2-10.2l4.4-44.3c0.6-5.7,5.6-10.2,11.3-10.2h43.9c5.7,0,9.8,4.6,9.2,10.2
					l-4.4,44.3C1414.1,2027.6,1409,2032.2,1403.4,2032.2z"/>
				<path d="M1487,2032.2h-43.9c-5.7,0-9.8-4.6-9.2-10.2l4.4-44.3c0.6-5.7,5.6-10.2,11.3-10.2h43.9c5.7,0,9.8,4.6,9.2,10.2
					l-4.4,44.3C1497.7,2027.6,1492.7,2032.2,1487,2032.2z"/>
				<path d="M1570.7,2032.2h-43.9c-5.7,0-9.8-4.6-9.2-10.2l4.4-44.3c0.6-5.7,5.6-10.2,11.3-10.2h43.9c5.7,0,9.8,4.6,9.2,10.2
					l-4.4,44.3C1581.4,2027.6,1576.4,2032.2,1570.7,2032.2z"/>
				<path d="M1311.3,2116.1h-43.9c-5.7,0-9.8-4.6-9.2-10.2l4.4-44.3c0.6-5.7,5.6-10.2,11.3-10.2h43.9c5.7,0,9.8,4.6,9.2,10.2
					l-4.4,44.3C1322,2111.5,1317,2116.1,1311.3,2116.1z"/>
				<path d="M1395,2116.1h-43.9c-5.7,0-9.8-4.6-9.2-10.2l4.4-44.3c0.6-5.7,5.6-10.2,11.3-10.2h43.9c5.7,0,9.8,4.6,9.2,10.2
					l-4.4,44.3C1405.7,2111.5,1400.6,2116.1,1395,2116.1z"/>
				<path d="M1478.7,2116.1h-43.9c-5.7,0-9.8-4.6-9.2-10.2l4.4-44.3c0.6-5.7,5.6-10.2,11.3-10.2h43.9c5.7,0,9.8,4.6,9.2,10.2
					l-4.4,44.3C1489.4,2111.5,1484.3,2116.1,1478.7,2116.1z"/>
				<path d="M1328.1,1948.1h-43.9c-5.7,0-9.8-4.6-9.2-10.2l4.4-44.3c0.6-5.7,5.6-10.2,11.3-10.2h43.9c5.7,0,9.8,4.6,9.2,10.2
					l-4.4,44.3C1338.8,1943.5,1333.7,1948.1,1328.1,1948.1z"/>
				<path d="M1411.8,1948.1h-43.9c-5.7,0-9.8-4.6-9.2-10.2l4.4-44.3c0.6-5.7,5.6-10.2,11.3-10.2h43.9c5.7,0,9.8,4.6,9.2,10.2
					l-4.4,44.3C1422.5,1943.5,1417.4,1948.1,1411.8,1948.1z"/>
				<path d="M1495.4,1948.1h-43.9c-5.7,0-9.8-4.6-9.2-10.2l4.4-44.3c0.6-5.7,5.6-10.2,11.3-10.2h43.9c5.7,0,9.8,4.6,9.2,10.2
					l-4.4,44.3C1506.1,1943.5,1501.1,1948.1,1495.4,1948.1z"/>
				<path d="M1579.1,1948.1h-43.9c-5.7,0-9.8-4.6-9.2-10.2l4.4-44.3c0.6-5.7,5.6-10.2,11.3-10.2h43.9c5.7,0,9.8,4.6,9.2,10.2
					l-4.4,44.3C1589.8,1943.5,1584.8,1948.1,1579.1,1948.1z"/>
			</g>
			<g>
				<g>
					<path d="M1301.3,1814.5C1301.3,1814.5,1301.3,1814.5,1301.3,1814.5c-9.3,0-17.6-3.7-23.6-10.3c-6.1-6.7-8.9-15.7-8-25.2
						c1.9-19.3,18.9-34.9,38-34.9c0.7,0,1.5,0,2.2,0.1c1.3,0.1,2.2,1.2,2.1,2.4c-0.1,1.3-1.2,2.2-2.4,2.1c-0.6,0-1.3-0.1-1.9-0.1
						c-16.8,0-31.8,13.8-33.4,30.7c-0.8,8.2,1.6,15.9,6.8,21.7c5.1,5.6,12.3,8.7,20.2,8.8c1.3,0,2.3,1,2.3,2.3
						C1303.5,1813.5,1302.5,1814.5,1301.3,1814.5z"/>
					<path d="M1350.5,1814.6C1350.5,1814.6,1350.5,1814.6,1350.5,1814.6c-9.3,0-17.6-3.7-23.6-10.3c-6.1-6.7-8.9-15.7-8-25.2
						c1.9-19.3,18.9-34.9,38-34.9c0.7,0,1.5,0,2.2,0.1c1.3,0.1,2.2,1.2,2.1,2.4c-0.1,1.3-1.2,2.2-2.4,2.1c-0.6,0-1.3-0.1-1.9-0.1
						c-16.8,0-31.8,13.8-33.4,30.7c-0.8,8.2,1.6,15.9,6.8,21.7c5.1,5.6,12.3,8.7,20.2,8.8c1.3,0,2.3,1,2.3,2.3
						C1352.8,1813.6,1351.8,1814.6,1350.5,1814.6z"/>
					<path d="M1399.8,1814.8C1399.8,1814.8,1399.8,1814.8,1399.8,1814.8c-9.3,0-17.6-3.7-23.6-10.3c-6.1-6.7-8.9-15.7-8-25.2
						c1.9-19.3,18.9-34.9,38-34.9c0.7,0,1.5,0,2.2,0.1c1.3,0.1,2.2,1.2,2.1,2.4c-0.1,1.3-1.2,2.2-2.4,2.1c-0.6,0-1.3-0.1-1.9-0.1
						c-16.8,0-31.8,13.8-33.4,30.7c-0.8,8.2,1.6,15.9,6.8,21.7c5.1,5.6,12.3,8.7,20.2,8.8c1.3,0,2.3,1,2.3,2.3
						C1402.1,1813.7,1401,1814.8,1399.8,1814.8z"/>
					<path d="M1449,1814.9C1449,1814.9,1449,1814.9,1449,1814.9c-9.3,0-17.6-3.7-23.6-10.3c-6.1-6.7-8.9-15.7-8-25.2
						c1.9-19.3,18.9-34.9,38-34.9c0.7,0,1.5,0,2.2,0.1c1.3,0.1,2.2,1.2,2.1,2.4c-0.1,1.3-1.2,2.2-2.4,2.1c-0.6,0-1.2-0.1-1.9-0.1
						c-16.8,0-31.8,13.8-33.4,30.7c-0.8,8.2,1.6,15.9,6.8,21.7c5.1,5.6,12.3,8.7,20.2,8.8c1.3,0,2.3,1,2.3,2.3
						C1451.3,1813.9,1450.3,1814.9,1449,1814.9z"/>
					<path d="M1498.3,1815C1498.3,1815,1498.3,1815,1498.3,1815c-9.3,0-17.6-3.7-23.6-10.3c-6.1-6.7-8.9-15.7-8-25.2
						c1.9-19.3,18.9-34.9,38-34.9c0.7,0,1.5,0,2.2,0.1c1.3,0.1,2.2,1.2,2.1,2.4c-0.1,1.3-1.1,2.2-2.4,2.1c-0.6,0-1.3-0.1-1.9-0.1
						c-16.8,0-31.8,13.8-33.4,30.7c-0.8,8.2,1.6,15.9,6.8,21.7c5.1,5.6,12.3,8.7,20.2,8.8c1.3,0,2.3,1,2.3,2.3
						C1500.6,1814,1499.6,1815,1498.3,1815z"/>
					<path d="M1547.6,1815.2C1547.6,1815.2,1547.6,1815.2,1547.6,1815.2c-9.3,0-17.6-3.7-23.6-10.3c-6.1-6.7-8.9-15.7-8-25.2
						c1.9-19.3,18.9-34.9,38-34.9c0.8,0,1.5,0,2.2,0.1c1.3,0.1,2.2,1.2,2.1,2.4c-0.1,1.3-1.2,2.2-2.4,2.1c-0.6,0-1.3-0.1-1.9-0.1
						c-16.8,0-31.8,13.8-33.4,30.7c-0.8,8.2,1.6,15.9,6.8,21.7c5.1,5.6,12.3,8.7,20.2,8.8c1.3,0,2.3,1,2.3,2.3
						C1549.9,1814.1,1548.8,1815.2,1547.6,1815.2z"/>
					<path d="M1594,1815.3C1594,1815.3,1594,1815.3,1594,1815.3c-9.3,0-17.6-3.7-23.6-10.3c-6.1-6.7-8.9-15.7-8-25.2
						c1.9-19.3,18.9-34.9,38-34.9c0,0,0.1,0,0.1,0c12.2,0,22.8,6.4,28.2,16.9c0.6,1.1,0.1,2.5-1,3.1c-1.1,0.6-2.5,0.1-3.1-1
						c-4.6-9-13.6-14.4-24.1-14.4c0,0-0.1,0-0.1,0c-16.8,0-31.8,13.8-33.4,30.7c-0.8,8.2,1.6,15.9,6.8,21.7
						c5.1,5.6,12.3,8.7,20.2,8.8c1.3,0,2.3,1,2.3,2.3C1596.3,1814.3,1595.3,1815.3,1594,1815.3z"/>
				</g>
			</g>
		</g>
	</g>
</g>
</svg>
