<svg width="416" height="416" viewBox="0 0 416 416" fill="none" xmlns="http://www.w3.org/2000/svg">
<circle cx="208" cy="208" r="208" fill="#0B0431"/>
<path d="M208.501 192.492C233.416 192.492 253.69 172.177 253.69 147.28C253.69 122.382 233.412 102 208.501 102C183.589 102 163.311 122.314 163.311 147.28C163.311 172.245 183.589 192.492 208.501 192.492Z" fill="white"/>
<path d="M208.502 197.754C165.222 197.754 130 233.046 130 276.413V290.091C130 303.291 140.716 314.028 153.893 314.028H263.114C276.284 314.028 287 303.291 287 290.091V276.413C287 233.046 251.778 197.754 208.498 197.754H208.502Z" fill="white"/>
</svg>
