<svg width="416" height="416" viewBox="0 0 416 416" fill="none" xmlns="http://www.w3.org/2000/svg">
<circle cx="208" cy="208" r="208" fill="#0B0431"/>
<path d="M208.501 190.019C236.591 190.019 259.447 167.117 259.447 139.048C259.447 110.979 236.586 88 208.501 88C180.416 88 157.555 110.902 157.555 139.048C157.555 167.194 180.416 190.019 208.501 190.019Z" fill="white"/>
<path d="M208.502 195.951C159.709 195.951 120 235.739 120 284.63V300.051C120 314.933 132.081 327.037 146.937 327.037H270.072C284.919 327.037 297 314.933 297 300.051V284.63C297 235.739 257.291 195.951 208.498 195.951H208.502Z" fill="white"/>
</svg>
